<?xml version="1.0" encoding="UTF-8"?>
<svg width="1505px" height="961px" viewBox="0 0 1505 961" version="1.1" xmlns="http://www.w3.org/2000/svg" xmlns:xlink="http://www.w3.org/1999/xlink">
    <!-- Generator: Sketch 61.1 (89650) - https://sketch.com -->
    <title>bg5</title>
    <desc>Created with Sketch.</desc>
    <defs>
        <linearGradient x1="49.8204172%" y1="-30.4727473%" x2="50.0276281%" y2="104.440399%" id="linearGradient-1">
            <stop stop-color="#FFFFFF" offset="0%"></stop>
            <stop stop-color="#FFFFFF" stop-opacity="0" offset="100%"></stop>
        </linearGradient>
        <linearGradient x1="99.9999957%" y1="49.9999023%" x2="7.11404477e-06%" y2="49.9999023%" id="linearGradient-2">
            <stop stop-color="#5ACEED" offset="0%"></stop>
            <stop stop-color="#538BD6" offset="100%"></stop>
        </linearGradient>
        <linearGradient x1="-1.62501357e-14%" y1="49.9999972%" x2="100.000019%" y2="49.9999972%" id="linearGradient-3">
            <stop stop-color="#F87B58" offset="0%"></stop>
            <stop stop-color="#F8C548" offset="50%"></stop>
            <stop stop-color="#F89C51" offset="100%"></stop>
        </linearGradient>
        <linearGradient x1="-1.16168155e-05%" y1="49.999973%" x2="100.000005%" y2="49.999973%" id="linearGradient-4">
            <stop stop-color="#E1A1ED" offset="0%"></stop>
            <stop stop-color="#7658F4" offset="100%"></stop>
        </linearGradient>
        <linearGradient x1="0%" y1="49.9999827%" x2="100.000005%" y2="49.9999827%" id="linearGradient-5">
            <stop stop-color="#5ACEED" offset="0%"></stop>
            <stop stop-color="#538BD6" offset="100%"></stop>
        </linearGradient>
        <linearGradient x1="100%" y1="50%" x2="0.298507463%" y2="50%" id="linearGradient-6">
            <stop stop-color="#59C2E9" offset="0%"></stop>
            <stop stop-color="#5BD3EF" offset="100%"></stop>
        </linearGradient>
    </defs>
    <g id="Page-1" stroke="none" stroke-width="1" fill="none" fill-rule="evenodd">
        <g id="bg5">
            <path d="M88.6933055,610.894253 C88.6933055,610.894253 -147.026112,404.407735 150.094763,306.798752 C298.266583,258.134146 333.117739,233.12573 448.241586,138.93617 C613.015117,4.08656321 828.977255,-73.8451946 1109.72959,163.897958 C1390.48192,401.641111 1602.35581,475.376304 1417.51411,617.919613 C1209.74401,778.150664 1336.13775,860.543215 1310.08488,905.710683 C1303.15195,917.725292 1259.23825,866.340691 1162.53484,919.24849 C942.282374,1039.75206 830.189739,856.424364 668.214249,902.151375 C515.441206,945.282733 436.940609,849.880832 387.213201,887.183628 C313.049567,942.842508 266.648719,942.127538 238.777121,927.48619 C215.460112,915.207353 201.734166,889.856995 202.806748,863.294296 C204.034777,833.110117 204.252403,776.580838 192.080924,735.438963 C173.676031,673.252093 128.891829,641.45146 88.6933055,610.894253 Z" id="Path" fill="#F5F5FC" fill-rule="nonzero"></path>
            <path d="M91.5089153,612.885418 C91.5089153,612.885418 -146.361266,401.930496 153.443107,302.218784 C302.902463,252.487257 338.080338,226.953226 454.195294,130.70718 C620.451153,-7.06469184 838.277404,-86.6817587 1121.47173,156.210128 C1404.66606,399.102016 1625.30467,484.127386 1431.9662,620.049866 C1298.07585,714.182323 1343.39999,668.227283 1301.69619,700.490612 C1213.12998,768.871462 1011.69625,640.393169 848.283832,687.109723 C694.163097,731.168748 544.237603,665.35218 477.269122,660.891883 C450.730336,659.15128 343.642917,658.747211 289.695222,655.856566 C259.505022,654.302456 226.222775,667.465769 184.394665,657.535005 C121.35728,642.568924 132.047377,644.123034 91.5089153,612.885418 Z" id="Path" fill="#F8F8FF" fill-rule="nonzero"></path>
            <g id="books" transform="translate(212.000000, 144.000000)" fill-rule="nonzero">
                <path d="M134.6323,76.6422222 L57.3989671,128.675556 C56.3888732,129.282222 54.601784,118.3 53.5139906,118.766667 L0.926948357,138.988889 L0.320892019,516.88 L329.036526,512.835556 L326.534601,0.668888889 L226.566385,1.58666667 L134.6323,76.6422222 Z" id="Path" fill="#E9EDFB"></path>
                <path d="M109.177934,88.9311111 L28.7278404,128.395556 L28.5258216,138.942222 L296.635822,137.386667 L295.563568,40.7866667 L179.946667,39.2311111 L154.026103,59.08 C149.488451,62.5177778 143.940704,66.1733333 136.932207,70.84 C125.308357,78.54 118.284319,83.6888889 109.177934,88.9311111 Z" id="Path" fill="#B0C0F4"></path>
                <polygon id="Path" fill="#B0C0F4" points="28.6656808 154.762222 28.6656808 250.164444 297.024319 249.62 297.039859 154.762222"></polygon>
                <polygon id="Path" fill="#B0C0F4" points="29.4115962 267.166667 29.4115962 362.584444 297.754695 362.04 297.770235 267.166667"></polygon>
                <polygon id="Path" fill="#B0C0F4" points="30.8878873 381.22 30.8878873 476.637778 299.230986 476.093333 299.246526 381.22"></polygon>
                <polygon id="Path" fill="#FFFFFF" points="122.044977 321.393333 134.6323 304.904444 181.391878 346.593333 169.690329 363.564444"></polygon>
                <polygon id="Path" fill="#FFFFFF" points="29.3338967 285.786667 59.6056338 285.957778 59.8387324 362.771111 29.3805164 362.397778"></polygon>
                <polygon id="Path" fill="#F5F5FC" points="95.5649765 298.868889 107.903662 291.806667 139.542911 355.024444 127.204225 363.346667"></polygon>
                <polygon id="Path" fill="#FFFFFF" points="80.926385 277.417778 95.6426761 277.417778 96.0156338 363.051111 80.8953052 362.662222"></polygon>
                <polygon id="Path" fill="#F5F5FC" points="59.8076526 303.535556 81.252723 303.924444 80.8953052 362.848889 59.4346948 362.522222"></polygon>
                <polygon id="Path" fill="#FFFFFF" points="177.180563 285.568889 207.4523 285.74 207.669859 362.553333 177.227183 362.18"></polygon>
                <polygon id="Path" fill="#FFFFFF" points="228.773052 277.2 243.473803 277.2 243.846761 362.833333 228.741972 362.444444"></polygon>
                <polygon id="Path" fill="#F5F5FC" points="207.654319 303.333333 229.09939 303.706667 228.741972 362.646667 207.265822 362.304444"></polygon>
                <polygon id="Path" fill="#FFFFFF" points="30.9034272 389.168889 54.0112676 389.371111 54.1822066 477.431111 30.934507 476.995556"></polygon>
                <polygon id="Path" fill="#F5F5FC" points="54.0889671 402.453333 69.7376526 402.251111 69.178216 477.026667 53.7160094 477.011111"></polygon>
                <polygon id="Path" fill="#FFFFFF" points="69.7376526 417.837778 90.9496244 418.117778 90.6077465 477.057778 69.1315962 476.715556"></polygon>
                <polygon id="Path" fill="#F5F5FC" points="200.164085 126.186667 200.164085 137.153333 286.022066 137.76 286.022066 126.186667"></polygon>
                <polygon id="Path" fill="#FFFFFF" points="200.039765 117.491111 200.443803 126.264444 256.294225 126.668889 255.921268 117.086667"></polygon>
                <polygon id="Path" fill="#FFFFFF" points="28.8366197 173.257778 59.1083568 173.444444 59.3414554 250.257778 28.8987793 249.868889"></polygon>
                <polygon id="Path" fill="#F5F5FC" points="264.545915 185.577778 251.787653 178.5 219.12277 241.733333 231.865493 250.04"></polygon>
                <polygon id="Path" fill="#FFFFFF" points="282.649906 164.095556 297.350657 164.095556 297.723615 249.713333 282.618826 249.34"></polygon>
                <polygon id="Path" fill="#F5F5FC" points="262.448028 190.711111 283.893099 191.084444 283.535681 250.024444 262.07507 249.682222"></polygon>
                <polygon id="Path" fill="#F5F5FC" points="118.004601 238.948889 118.004601 249.915556 203.862582 250.522222 203.862582 238.948889"></polygon>
                <polygon id="Path" fill="#FFFFFF" points="131.4777 229.973333 131.897277 238.731111 187.7477 239.135556 187.374742 229.568889"></polygon>
            </g>
            <g id="flower" transform="translate(1013.000000, 355.000000)">
                <path d="M145.46,414.927027 C145.46,414.927027 119.637778,445.355405 140.793333,446.194595 C161.948889,447.033784 205.348889,471.556757 213.655556,449.582432 C221.962222,427.608108 238.544444,416.620946 228.417778,414.087838 C218.291111,411.55473 209.051111,401.406757 187.833333,403.100676 C166.615556,404.794595 145.46,414.927027 145.46,414.927027 Z" id="Path" fill="#F5F5FC" fill-rule="nonzero"></path>
                <path d="M138.708889,266.794595 C138.708889,266.794595 126.606667,268.1 126.606667,283.065541 C126.606667,298.031081 134.384444,427.794595 163.94,430.343243 C183.151111,432.006081 203.482222,431.897297 213.531111,430.933784 C217.871111,430.514189 222.133333,417.413514 222.864444,412.160811 C226.768889,386.379054 231.793333,323.57973 232.897778,286.997297 C233.115556,279.615541 228.028889,269.716216 225.368889,267.291892 C210.684444,253.895946 138.708889,266.794595 138.708889,266.794595 Z" id="Path" fill="#E1E6FB" fill-rule="nonzero"></path>
                <path d="M281.726667,15.9547297 C277.06,11.6189189 270.557778,17.5087838 273.031111,23.6317568 C275.38,29.4905405 277.013333,39.6695946 267.602222,50.5790541 C252.995556,67.5027027 200.308889,124.691892 200.837778,161.460811 C201.366667,198.22973 189.948889,208.486486 200.837778,222.488514 C211.726667,236.490541 255.608889,235.931081 267.088889,206.170946 C278.568889,176.410811 307.688889,164.382432 307.128889,121.801351 C306.568889,79.2202703 301.466667,60.5094595 296.24,45.9324324 C293.004444,36.6858108 287.84,21.6736486 281.726667,15.9547297 Z" id="Path" fill="#E9EDFB" fill-rule="nonzero"></path>
                <path d="M201.911111,261.277703 C201.911111,261.277703 206.577778,194.624324 258.72,165.610135 C291.386667,147.427703 293.595556,84.3175676 285.786667,70.0513514" id="Path" stroke="#FFFFFF" stroke-width="3" stroke-linecap="round" stroke-linejoin="round"></path>
                <path d="M208.6,289.266216 C208.6,289.266216 225.026667,354.878378 207.231111,406.830405" id="Path" fill="#BAC5F4" fill-rule="nonzero"></path>
                <path d="M246.151111,1.43986486 C241.188889,-2.70945946 234.188889,2.88513514 236.817778,8.775 C239.337778,14.3851351 241.08,24.1135135 231,34.5412162 C215.351111,50.7344595 158.915556,105.437162 159.444444,140.605405 C159.973333,175.773649 159.444444,196.427027 171.173333,209.822973 C182.902222,223.218919 210.062222,212.464865 222.304444,183.994595 C234.546667,155.524324 273.917778,143.402703 273.357778,102.639865 C272.797778,61.877027 267.291111,44.0209459 261.706667,30.0655405 C258.237778,21.2695946 252.684444,6.91013514 246.151111,1.43986486 Z" id="Path" fill="#BAC5F4" fill-rule="nonzero"></path>
                <path d="M180.133333,262.64527 C180.133333,262.64527 161.777778,171.966216 206.468889,117.543243 C224.342222,95.7864865 250.848889,52.0864865 250.615556,31.0135135" id="Path" stroke="#FFFFFF" stroke-width="3" stroke-linecap="round" stroke-linejoin="round"></path>
                <path d="M106.866667,15.9547297 C111.455556,11.6189189 117.942222,17.5087838 115.5,23.6317568 C113.166667,29.4905405 111.548889,39.6695946 120.882222,50.5790541 C135.364444,67.5027027 187.615556,124.691892 187.102222,161.460811 C186.588889,198.22973 187.102222,219.815541 176.213333,233.833108 C165.324444,247.850676 140.264444,236.599324 128.877778,206.839189 C117.491111,177.079054 81.1222222,164.382432 81.5733333,121.801351 C82.0244444,79.2202703 87.1888889,60.5094595 92.3688889,45.9324324 C95.6977778,36.6858108 100.815556,21.6736486 106.866667,15.9547297 Z" id="Path" fill="#E9EDFB" fill-rule="nonzero"></path>
                <path d="M165.573333,264.292568 C165.573333,264.292568 186.604444,181.927703 145.226667,127.535811 C128.675556,105.779054 102.168889,73.5168919 102.386667,52.4439189" id="Path" stroke="#FFFFFF" stroke-width="3" stroke-linecap="round" stroke-linejoin="round"></path>
                <path d="M73.3133333,159.580405 C73.3133333,159.580405 30.0844444,160.575 6.75111111,108.110135 C-16.5822222,55.6452703 35.9177778,45.0621622 74.6355556,73.1439189 C113.353333,101.225676 97.44,112.881081 143.577778,138.849324 C189.715556,164.817568 179.651111,216.210135 165.355556,229.979054 C151.06,243.747973 123.993333,264.94527 105.948889,209.310135 C87.9044444,153.675 73.3133333,159.580405 73.3133333,159.580405 Z" id="Path" fill="#B0C0F4" fill-rule="nonzero"></path>
                <path d="M157.282222,264.94527 C157.282222,264.94527 160.393333,133.82973 30.1777778,97.697973" id="Path" stroke="#FFFFFF" stroke-width="3" stroke-linecap="round" stroke-linejoin="round"></path>
                <path d="M138.708889,266.794595 C138.708889,266.794595 191.706667,258.278378 212.411111,262.738514 C233.115556,267.198649 175.886667,272.466892 175.886667,272.466892 C175.886667,272.466892 148.617778,273.679054 138.708889,266.794595 Z" id="Path" fill="#BAC5F4" fill-rule="nonzero"></path>
            </g>
            <path d="M509.290195,635.518452 C509.290195,635.518452 449.576602,588.466575 439.484383,542.315659 C429.392163,496.164742 451.256047,464.18065 483.212149,459.147699 C515.168252,454.114748 534.528519,438.953761 646.367103,476.794095 C758.205688,514.634429 886.900922,447.388614 886.900922,447.388614 C886.900922,447.388614 992.068379,399.062965 1043.96011,410.853119 C1103.05169,424.258787 1115.61643,459.986524 1099.64615,523.845972 C1083.67587,587.705419 1029.26497,636 1029.26497,636 L509.290195,635.518452 Z" id="Path" fill="#BAC5F4" fill-rule="nonzero"></path>
            <path d="M482.27914,631 C482.27914,631 472.957703,631 471.40413,640.273466 C469.850557,649.546932 472.957703,678.912909 477.618421,688.186375 C482.27914,697.459841 504.137908,696.996168 504.137908,696.996168 L1036.90462,695.914264 C1036.90462,695.914264 1054.59981,696.099733 1058.65463,682.004064 C1061.9016,670.67498 1066.64,659.376807 1066.98178,651.556183 C1067.39554,642.342634 1060.71564,634.319867 1051.53927,633.009251 C1045.75527,632.301003 1039.93559,631.919149 1034.10818,631.865524 C993.699757,631.850068 482.27914,631 482.27914,631 Z" id="Path" fill="#BAC5F4" fill-rule="nonzero"></path>
            <polygon id="Path" fill="#FFFFFF" fill-rule="nonzero" points="457 776 492.902439 698 521 698 483.536585 776"></polygon>
            <polygon id="Path" fill="#FFFFFF" fill-rule="nonzero" points="1008 698 1040.66667 777 1064 775.45098 1032.88889 698"></polygon>
            <path d="M518.720099,632 C518.720099,632 469.602931,594.176883 467.303234,578.436635 C464.304306,558.044098 482.841725,527.571599 554.660628,541.063239 C626.479531,554.55488 753.118228,591.059849 821.75174,572.373151 C890.385253,553.686453 976.77926,475.558997 982.994656,471.433967 C989.210052,467.308936 1062.64496,431.207167 1079.3333,486.212741 C1096.02164,541.218316 1028.92643,631.41071 1028.92643,631.41071 L518.720099,632 Z" id="Path" fill="#B0C0F4" fill-rule="nonzero"></path>
            <polygon id="Path" fill="#BAC5F4" fill-rule="nonzero" points="757 0 759.12761 105 761.709977 104.550354 764 0"></polygon>
            <path d="M704.211368,191.489741 C704.211368,191.489741 684.592357,103.841924 762.227588,103.004969 C835.674315,102.214511 816.833836,196 816.833836,196 L704.211368,191.489741 Z" id="Path" fill="#BAC5F4" fill-rule="nonzero"></path>
            <path d="M704,191.03962 C704,191.03962 766.197284,163.579837 817,195.276363 C817,195.276363 763.5308,224.285403 704,191.03962 Z" id="Path" fill="#FFFFFF" fill-rule="nonzero"></path>
            <path d="M733,119 C733,119 706.294145,129.097345 711.729985,175" id="Path" fill="#FFFFFF" fill-rule="nonzero"></path>
            <polygon id="Path" fill="url(#linearGradient-1)" fill-rule="nonzero" points="702.983423 191 648 389 873 386.791185 816.260464 195.168749"></polygon>
            <g id="Layer_1" transform="translate(657.000000, 357.000000)" fill-rule="nonzero">
                <g id="woman">
                    <g id="Group" transform="translate(74.285714, 264.041570)" fill="#4B44BE">
                        <path d="M86.7857143,26.404157 C82.5714286,19.4106236 79.2142857,17.5551963 68.7857143,17.269746 C58.3571429,16.9842956 44.5,17.1270208 44.5,17.1270208 L44.3571429,31.8990762 C44.3571429,31.8990762 55.8571429,38.5357968 62,41.8184758 C62.3571429,42.0325635 63.3571429,42.6034642 64.0714286,43.0316397 C65.1428571,43.5311778 66.2857143,43.9593533 67.4285714,44.2448037 C73.5,45.5293303 79,44.887067 82.9285714,40.9621247 C87.2857143,36.6090069 91,33.3976905 86.7857143,26.404157 Z" id="Path"></path>
                        <path d="M8.14285714,13.2734411 C7.78571429,13.5588915 6.85714286,14.2725173 6.21428571,14.7720554 C5.35714286,15.5570439 4.57142857,16.4847575 3.85714286,17.4124711 C0.428571429,22.5505774 -1.07142857,27.9027714 1.14285714,33.0408776 C3.57142857,38.6785219 5.21428571,43.3884527 13.2142857,42.0325635 C21.2142857,40.6766744 24.2857143,38.2503464 28.4285714,28.7591224 C32.5714286,19.2678984 37.6428571,6.27990762 37.5714286,6.27990762 L23.9285714,0.642263279 C23.9285714,0.642263279 13.5,8.84896074 8.14285714,13.2734411 Z" id="Path"></path>
                    </g>
                    <path d="M119.714286,281.810855 C119.714286,281.810855 119.928571,296.725635 117.5,297.082448 C115.071429,297.439261 81.5714286,292.586605 68.2142857,291.872979 C54.8571429,291.159353 24.5714286,282.52448 9.71428571,265.754273 C-3.14285714,251.267667 -1.14285714,235.211085 8.35714286,235.211085 C17.8571429,235.211085 26.5714286,227.147113 50.7142857,238.63649 C74.8571429,250.125866 100.428571,252.052656 114.785714,250.910855 C129.142857,249.769053 169.357143,242.347344 172.5,240.063741 C175.642857,237.780139 190.714286,231.214781 211.714286,233.498383 C232.714286,235.781986 222.785714,252.409469 218.357143,258.832102 C212.142857,267.752425 197.428571,277.315012 185.142857,277.743187 C172.857143,278.171363 119.714286,281.810855 119.714286,281.810855 Z" id="Path" fill="url(#linearGradient-2)"></path>
                    <path d="M94.8571429,20.9806005 C87.7857143,23.5496536 78.7857143,58.517321 78.7857143,58.517321 L78.6428571,58.3745958 L77.6428571,63.2272517 L76.4285714,69.5785219 L78.7857143,107.543418 L101.642857,118.961432 L154.142857,133.091224 L168.642857,153.715012 C168.642857,153.715012 201.142857,186.755889 201.358119,189.039492 C201.571429,191.323095 166.428571,202.955196 163.071429,203.454734 C155,204.667898 214.714286,190.038568 195.571429,166.845727 C187.428571,156.926328 175.5,127.096767 151.857143,107.32933 C138.142857,95.9113164 142,63.4413395 137.142857,42.8889145 C131.071429,17.1983834 127.357143,9.49122402 121.285714,9.49122402 C115.785714,9.49122402 108.142857,16.056582 94.8571429,20.9806005" id="Path" fill="url(#linearGradient-3)"></path>
                    <path d="M169.142857,103.975289 C158.142857,93.913164 154.428571,91.486836 144.785714,94.9122402 C135.142857,98.3376443 130.428571,101.477598 117.285714,103.618476 C109.214286,105.045727 100.857143,103.975289 93.3571429,100.69261 L66.2857143,103.404388 C62.8571429,102.976212 24.3571429,175.19515 23.4285714,190.181293 C22.8571429,199.387067 43.7857143,213.588222 49.6428571,215.015473 C52,215.586374 56.2142857,192.893072 57.5714286,190.823557 L48.7857143,188.111778 C50.3571429,184.186836 55.6428571,174.481524 59.1428571,169.272055 C60.2142857,167.630716 68.5714286,153.857737 69.7142857,148.576905 C69.9285714,149.076443 71.1428571,159.067206 72.2857143,162.278522 C74.4285714,168.201617 77.3571429,171.555658 77.3571429,176.265589 C77.3571429,180.97552 76.7857143,199.672517 73.3571429,208.093303 C69.9285714,216.514088 64.9285714,235.996074 64.9285714,235.996074 L151.5,235.496536 C151.5,235.496536 148.357143,198.316628 149.642857,185.542725 C149.642857,185.542725 148.285714,180.404619 150.857143,172.98291 C155.071429,160.708545 156.285714,142.439723 155.571429,139.585219 C154.5,135.089376 181,173.125635 186.785714,182.759584 C189.214286,186.755889 156.285714,193.820785 153.571429,196.889376 C150.714286,200.100693 156.357143,208.806928 156.357143,208.806928 C156.357143,208.806928 213.785714,201.813395 213.501063,193.035797 C213.214286,184.258199 181.928571,115.60739 169.142857,103.975289 Z" id="Path" fill="url(#linearGradient-4)"></path>
                    <path d="M101.785714,0.42817552 C101.785714,0.42817552 85.7142857,1.0704388 81.0714286,17.9120092 C76.4285714,34.7535797 75.7857143,58.2318707 75.6428571,61.8713626 C75.5,65.7249423 77.2857143,88.2755196 68.6428571,97.6953811 C61.2142857,105.830716 64.2142857,113.6806 62.3571429,120.174596 L61.5,130.950346 C61.6428571,132.234873 62.5714286,133.305312 63.7857143,133.733487 C64.9285714,134.0903 68.9285714,132.234873 69.6428571,131.949423 C79.6428571,127.953118 79.6428571,124.741801 83.4285714,121.530485 C86.5714286,118.890069 95.2142857,112.752887 97.7857143,110.326559 C100.357143,107.900231 102.142857,105.759353 102.285714,102.690762 C102.785714,87.0623557 100.071429,72.6471132 96.6428571,65.0113164 C93.2142857,57.3755196 86.6428571,44.4588915 92.1428571,35.8953811 C97.6428571,27.3318707 107.571429,18.7683603 108.142857,16.6274827 C108.714286,14.4866051 109,24.9055427 115.071429,28.5450346 C121.142857,32.1845266 126.214286,37.2512702 128.071429,42.1752887 C129.642857,46.3143187 131.714286,53.3792148 126,65.5822171 C120.285714,77.7852194 115.642857,93.4849885 123.714286,105.11709 C131.785714,116.749192 148.785714,129.309007 151.571429,135.160739 C154.714286,141.654734 151.714286,156.926328 151.142857,166.132102 C150.571429,175.337875 169.142857,150.146882 168.571429,138.157968 C168,126.169053 170,121.030947 158.5,102.6194 C147,84.2078522 139.5,52.6655889 139.214286,45.0297921 C138.928571,37.3939954 135.5,16.1993072 128.571429,10.1334873 C122.571429,4.99538106 121.285714,0 109,0 C106.571429,0 104.142857,0.142725173 101.785714,0.42817552" id="Path" fill="url(#linearGradient-5)"></path>
                    <path d="M65.1428571,255.620785 L146.285714,256.048961 C146.285714,256.048961 136.785714,263.47067 132.214286,264.327021 C127.642857,265.183372 108.071429,274.888684 100.785714,271.177829 C95.6428571,268.394688 65.1428571,255.620785 65.1428571,255.620785 Z" id="Path" fill="#000000" opacity="0.07"></path>
                    <path d="M110.357143,73.5748268 C110.357143,73.5748268 117.928571,75.5016166 121.071429,71.0771363 C128.142857,61.0863741 121.714286,76.1438799 121.714286,76.1438799 C121.714286,76.1438799 119.642857,81.995612 119.785714,84.9214781 C119.928571,87.8473441 111.642857,74.0030023 110.357143,73.5748268" id="Path" fill="#000000" opacity="0.07"></path>
                    <path d="M80.0714286,124.955889 C79.1428571,126.097691 77.7857143,127.025404 77.0714286,129.95127 C75.8571429,134.661201 74.5714286,139.942032 71.2857143,144.794688 C69.3571429,147.649192 70.4285714,158.710393 73.6428571,165.703926 C74.5714286,167.702079 77.4285714,172.911547 77.3571429,174.124711 L77.1428571,184.258199 L85.8571429,184.258199 C85.8571429,184.258199 93.2857143,185.043187 91.7142857,178.906005 C90.3571429,173.482448 83.2857143,153.286836 88.0714286,148.862356 C97.0714286,140.655658 85.7142857,124.242263 89.9285714,118.961432 C93.5714286,114.394226 98.7857143,111.111547 98.7857143,109.612933 C98.7857143,109.042032 97.4285714,110.89746 96.5,111.539723 C94.7142857,112.824249 93.7857143,113.823326 92.2857143,114.822402 C90.6428571,115.892841 88.1428571,117.676905 86.5,118.890069 C84.1428571,120.674134 82,122.672286 80.0714286,124.955889 Z" id="Path" fill="#000000" opacity="0.07"></path>
                </g>
                <g id="laptop" transform="translate(46.000000, 184.000000)">
                    <path d="M0.427118644,5.84554455 C0.427118644,5.84554455 0.355932203,0.57029703 5.55254237,0.356435644 C10.7491525,0.142574257 120.80339,0.285148515 120.80339,0.285148515 C120.80339,0.285148515 125.644068,0.855445545 125.786441,4.77623762 C125.928873,8.6970297 125.928873,66.9386139 125.928873,66.9386139 C125.928873,66.9386139 126,71.429703 121.230508,71.5722772 C116.461017,71.7148515 4.27118644,71.7148515 4.27118644,71.7148515 C4.27118644,71.7148515 0.0711864407,70.6455446 0.141478087,66.439604 C0.213559322,62.2336634 0.427118644,5.84554455 0.427118644,5.84554455 Z" id="Path" fill="#FFFFFF"></path>
                    <ellipse id="Oval" fill="url(#linearGradient-6)" cx="63.4983051" cy="36" rx="4.76949153" ry="4.77623762"></ellipse>
                </g>
            </g>
        </g>
    </g>
</svg>